<svg width="64" height="64" viewBox="0 0 64 64" fill="none" xmlns="http://www.w3.org/2000/svg">
<path d="M43.5 30H34V20.5C34 20.225 33.775 20 33.5 20H30.5C30.225 20 30 20.225 30 20.5V30H20.5C20.225 30 20 30.225 20 30.5V33.5C20 33.775 20.225 34 20.5 34H30V43.5C30 43.775 30.225 44 30.5 44H33.5C33.775 44 34 43.775 34 43.5V34H43.5C43.775 34 44 33.775 44 33.5V30.5C44 30.225 43.775 30 43.5 30Z" fill="white"/>
<path d="M32 4C16.5375 4 4 16.5375 4 32C4 47.4625 16.5375 60 32 60C47.4625 60 60 47.4625 60 32C60 16.5375 47.4625 4 32 4ZM32 55.25C19.1625 55.25 8.75 44.8375 8.75 32C8.75 19.1625 19.1625 8.75 32 8.75C44.8375 8.75 55.25 19.1625 55.25 32C55.25 44.8375 44.8375 55.25 32 55.25Z" fill="white"/>
</svg>
