<svg width="172" height="31" viewBox="0 0 172 31" fill="none" xmlns="http://www.w3.org/2000/svg">
<path d="M14.7038 2.38619C15.1518 1.2046 16.8471 1.2046 17.2965 2.38619L20.1944 10.4137C20.2955 10.6752 20.4735 10.8999 20.7049 11.0581C20.9364 11.2163 21.2104 11.3006 21.4907 11.2999H28.6122C29.9282 11.2999 30.5021 12.9378 29.4676 13.74L24.3998 18.2997C24.1728 18.4743 24.0069 18.7162 23.9259 18.9909C23.8449 19.2655 23.853 19.5588 23.949 19.8285L25.7997 27.6726C26.2505 28.9326 24.7918 30.0148 23.6886 29.2392L16.8051 24.8712C16.5694 24.7056 16.2883 24.6167 16.0002 24.6167C15.712 24.6167 15.4309 24.7056 15.1952 24.8712L8.31171 29.2392C7.20996 30.0148 5.74982 28.9312 6.2006 27.6726L8.05132 19.8285C8.14733 19.5588 8.15542 19.2655 8.07443 18.9909C7.99345 18.7162 7.82755 18.4743 7.60054 18.2997L2.53277 13.74C1.49681 12.9378 2.07359 11.2999 3.38673 11.2999H10.5082C10.7886 11.3008 11.0627 11.2166 11.2942 11.0583C11.5256 10.9001 11.7036 10.6753 11.8046 10.4137L14.7024 2.38619H14.7038Z" stroke="#FAFAFA" stroke-width="2" stroke-linecap="round" stroke-linejoin="round"/>
<path d="M49.7038 2.38619C50.1518 1.2046 51.8471 1.2046 52.2965 2.38619L55.1944 10.4137C55.2955 10.6752 55.4735 10.8999 55.7049 11.0581C55.9364 11.2163 56.2104 11.3006 56.4907 11.2999H63.6122C64.9282 11.2999 65.5021 12.9378 64.4676 13.74L59.3998 18.2997C59.1728 18.4743 59.0069 18.7162 58.9259 18.9909C58.8449 19.2655 58.853 19.5588 58.949 19.8285L60.7997 27.6726C61.2505 28.9326 59.7918 30.0148 58.6886 29.2392L51.8051 24.8712C51.5694 24.7056 51.2883 24.6167 51.0002 24.6167C50.712 24.6167 50.4309 24.7056 50.1952 24.8712L43.3117 29.2392C42.21 30.0148 40.7498 28.9312 41.2006 27.6726L43.0513 19.8285C43.1473 19.5588 43.1554 19.2655 43.0744 18.9909C42.9934 18.7162 42.8276 18.4743 42.6005 18.2997L37.5328 13.74C36.4968 12.9378 37.0736 11.2999 38.3867 11.2999H45.5082C45.7886 11.3008 46.0627 11.2166 46.2942 11.0583C46.5256 10.9001 46.7036 10.6753 46.8046 10.4137L49.7024 2.38619H49.7038Z" stroke="#FAFAFA" stroke-width="2" stroke-linecap="round" stroke-linejoin="round"/>
<path d="M84.7038 2.38619C85.1518 1.2046 86.8471 1.2046 87.2965 2.38619L90.1944 10.4137C90.2955 10.6752 90.4735 10.8999 90.7049 11.0581C90.9364 11.2163 91.2104 11.3006 91.4907 11.2999H98.6122C99.9282 11.2999 100.502 12.9378 99.4676 13.74L94.3998 18.2997C94.1728 18.4743 94.0069 18.7162 93.9259 18.9909C93.8449 19.2655 93.853 19.5588 93.949 19.8285L95.7997 27.6726C96.2505 28.9326 94.7918 30.0148 93.6886 29.2392L86.8051 24.8712C86.5694 24.7056 86.2883 24.6167 86.0002 24.6167C85.712 24.6167 85.4309 24.7056 85.1952 24.8712L78.3117 29.2392C77.21 30.0148 75.7498 28.9312 76.2006 27.6726L78.0513 19.8285C78.1473 19.5588 78.1554 19.2655 78.0744 18.9909C77.9934 18.7162 77.8276 18.4743 77.6005 18.2997L72.5328 13.74C71.4968 12.9378 72.0736 11.2999 73.3867 11.2999H80.5082C80.7886 11.3008 81.0627 11.2166 81.2942 11.0583C81.5256 10.9001 81.7036 10.6753 81.8046 10.4137L84.7024 2.38619H84.7038Z" stroke="#FAFAFA" stroke-width="2" stroke-linecap="round" stroke-linejoin="round"/>
<path d="M119.704 2.38619C120.152 1.2046 121.847 1.2046 122.297 2.38619L125.194 10.4137C125.295 10.6752 125.474 10.8999 125.705 11.0581C125.936 11.2163 126.21 11.3006 126.491 11.2999H133.612C134.928 11.2999 135.502 12.9378 134.468 13.74L129.4 18.2997C129.173 18.4743 129.007 18.7162 128.926 18.9909C128.845 19.2655 128.853 19.5588 128.949 19.8285L130.8 27.6726C131.251 28.9326 129.792 30.0148 128.689 29.2392L121.805 24.8712C121.569 24.7056 121.288 24.6167 121 24.6167C120.712 24.6167 120.431 24.7056 120.195 24.8712L113.312 29.2392C112.21 30.0148 110.75 28.9312 111.201 27.6726L113.051 19.8285C113.147 19.5588 113.155 19.2655 113.074 18.9909C112.993 18.7162 112.828 18.4743 112.601 18.2997L107.533 13.74C106.497 12.9378 107.074 11.2999 108.387 11.2999H115.508C115.789 11.3008 116.063 11.2166 116.294 11.0583C116.526 10.9001 116.704 10.6753 116.805 10.4137L119.702 2.38619H119.704Z" stroke="#FAFAFA" stroke-width="2" stroke-linecap="round" stroke-linejoin="round"/>
<path d="M154.704 2.38619C155.152 1.2046 156.847 1.2046 157.297 2.38619L160.194 10.4137C160.295 10.6752 160.474 10.8999 160.705 11.0581C160.936 11.2163 161.21 11.3006 161.491 11.2999H168.612C169.928 11.2999 170.502 12.9378 169.468 13.74L164.4 18.2997C164.173 18.4743 164.007 18.7162 163.926 18.9909C163.845 19.2655 163.853 19.5588 163.949 19.8285L165.8 27.6726C166.251 28.9326 164.792 30.0148 163.689 29.2392L156.805 24.8712C156.569 24.7056 156.288 24.6167 156 24.6167C155.712 24.6167 155.431 24.7056 155.195 24.8712L148.312 29.2392C147.21 30.0148 145.75 28.9312 146.201 27.6726L148.051 19.8285C148.147 19.5588 148.155 19.2655 148.074 18.9909C147.993 18.7162 147.828 18.4743 147.601 18.2997L142.533 13.74C141.497 12.9378 142.074 11.2999 143.387 11.2999H150.508C150.789 11.3008 151.063 11.2166 151.294 11.0583C151.526 10.9001 151.704 10.6753 151.805 10.4137L154.702 2.38619H154.704Z" stroke="#FAFAFA" stroke-width="2" stroke-linecap="round" stroke-linejoin="round"/>
</svg>
