<svg width="50" height="50" viewBox="0 0 50 50" fill="none" xmlns="http://www.w3.org/2000/svg">
<path fill-rule="evenodd" clip-rule="evenodd" d="M19 13.1765H31V10.2207H34V13.1765H35.5C36.2956 13.1765 37.0587 13.488 37.6213 14.0423C38.1839 14.5966 38.5 15.3485 38.5 16.1324V36.8235C38.5 37.6074 38.1839 38.3592 37.6213 38.9136C37.0587 39.4679 36.2956 39.7793 35.5 39.7793H14.5C13.7044 39.7793 12.9413 39.4679 12.3787 38.9136C11.8161 38.3592 11.5 37.6074 11.5 36.8235V16.1324C11.5 15.3485 11.8161 14.5966 12.3787 14.0423C12.9413 13.488 13.7044 13.1765 14.5 13.1765H16V10.2207H19V13.1765ZM14.5 19.0883V36.8235H35.5V19.0883H14.5ZM17.5 23.5221H20.5V26.4779H17.5V23.5221ZM23.5 23.5221H26.5V26.4779H23.5V23.5221ZM29.5 23.5221H32.5V26.4779H29.5V23.5221ZM29.5 29.4338H32.5V32.3897H29.5V29.4338ZM23.5 29.4338H26.5V32.3897H23.5V29.4338ZM17.5 29.4338H20.5V32.3897H17.5V29.4338Z" fill="#FAFAFA"/>
<rect x="0.5" y="0.5" width="49" height="49" rx="24.5" stroke="#FAFAFA"/>
</svg>
