<svg width="10" height="10" viewBox="0 0 10 10" fill="none" xmlns="http://www.w3.org/2000/svg">
<path d="M6.2441 3.53097L5.18899 1.24351C5.11453 1.08208 4.8851 1.08208 4.81064 1.24351L3.75553 3.53097C3.72518 3.59677 3.66283 3.64207 3.59088 3.6506L1.08933 3.9472C0.91279 3.96813 0.841891 4.18633 0.972412 4.30704L2.82187 6.01737C2.87507 6.06656 2.89888 6.13986 2.88476 6.21092L2.39382 8.68169C2.35918 8.85606 2.54479 8.99092 2.69992 8.90409L4.89806 7.67367C4.96128 7.63828 5.03835 7.63828 5.10157 7.67367L7.29971 8.90409C7.45484 8.99092 7.64045 8.85606 7.60581 8.68169L7.11487 6.21092C7.10075 6.13986 7.12456 6.06656 7.17776 6.01737L9.02722 4.30704C9.15774 4.18633 9.08684 3.96813 8.9103 3.9472L6.40875 3.6506C6.3368 3.64207 6.27445 3.59677 6.2441 3.53097Z" fill="white" stroke="white" stroke-width="0.5" stroke-linecap="round" stroke-linejoin="round"/>
</svg>
