<svg width="16" height="16" viewBox="0 0 16 16" fill="none" xmlns="http://www.w3.org/2000/svg">
<path d="M10.5 8C10.5 8.66304 10.2366 9.29893 9.76777 9.76777C9.29893 10.2366 8.66304 10.5 8 10.5C7.33696 10.5 6.70107 10.2366 6.23223 9.76777C5.76339 9.29893 5.5 8.66304 5.5 8C5.5 7.8575 5.515 7.71833 5.54083 7.58333H4.66667V10.9142C4.66667 11.1458 4.85417 11.3333 5.08583 11.3333H10.915C11.026 11.3331 11.1324 11.2889 11.2109 11.2103C11.2893 11.1317 11.3333 11.0252 11.3333 10.9142V7.58333H10.4592C10.485 7.71833 10.5 7.8575 10.5 8ZM8 9.66667C8.21892 9.66661 8.43569 9.62344 8.63793 9.53961C8.84017 9.45578 9.02392 9.33294 9.17868 9.17809C9.33345 9.02325 9.4562 8.83944 9.53993 8.63716C9.62366 8.43488 9.66672 8.21809 9.66667 7.99917C9.66661 7.78024 9.62344 7.56347 9.53961 7.36123C9.45578 7.15899 9.33294 6.97525 9.17809 6.82048C9.02325 6.66572 8.83944 6.54297 8.63716 6.45924C8.43488 6.37551 8.21809 6.33245 7.99917 6.3325C7.55703 6.33261 7.13304 6.50836 6.82048 6.82107C6.50792 7.13379 6.33239 7.55786 6.3325 8C6.33261 8.44214 6.50836 8.86612 6.82107 9.17868C7.13379 9.49125 7.55786 9.66678 8 9.66667ZM10 6.25H10.9992C11.0655 6.25 11.1292 6.22369 11.1762 6.17683C11.2233 6.12997 11.2498 6.06638 11.25 6V5.00083C11.25 4.93431 11.2236 4.87051 11.1765 4.82347C11.1295 4.77643 11.0657 4.75 10.9992 4.75H10C9.93347 4.75 9.86967 4.77643 9.82263 4.82347C9.77559 4.87051 9.74917 4.93431 9.74917 5.00083V6C9.75 6.1375 9.8625 6.25 10 6.25ZM8 0C5.87827 0 3.84344 0.842855 2.34315 2.34315C0.842855 3.84344 0 5.87827 0 8C0 10.1217 0.842855 12.1566 2.34315 13.6569C3.84344 15.1571 5.87827 16 8 16C9.05058 16 10.0909 15.7931 11.0615 15.391C12.0321 14.989 12.914 14.3997 13.6569 13.6569C14.3997 12.914 14.989 12.0321 15.391 11.0615C15.7931 10.0909 16 9.05058 16 8C16 6.94943 15.7931 5.90914 15.391 4.93853C14.989 3.96793 14.3997 3.08601 13.6569 2.34315C12.914 1.60028 12.0321 1.011 11.0615 0.608964C10.0909 0.206926 9.05058 0 8 0ZM12.1667 11.2408C12.1667 11.75 11.75 12.1667 11.2408 12.1667H4.75917C4.25 12.1667 3.83333 11.75 3.83333 11.2408V4.75917C3.83333 4.25 4.25 3.83333 4.75917 3.83333H11.2408C11.75 3.83333 12.1667 4.25 12.1667 4.75917V11.2408Z" fill="white"/>
</svg>
