<svg width="17" height="17" viewBox="0 0 17 17" fill="none" xmlns="http://www.w3.org/2000/svg">
<path d="M8.5 0.5C4.08167 0.5 0.5 4.08167 0.5 8.5C0.5 12.9183 4.08167 16.5 8.5 16.5C12.9183 16.5 16.5 12.9183 16.5 8.5C16.5 4.08167 12.9183 0.5 8.5 0.5ZM6.54167 11.8158H4.92167V6.6025H6.54167V11.8158ZM5.72167 5.9625C5.21 5.9625 4.87917 5.6 4.87917 5.15167C4.87917 4.69417 5.22 4.3425 5.7425 4.3425C6.265 4.3425 6.585 4.69417 6.595 5.15167C6.595 5.6 6.265 5.9625 5.72167 5.9625ZM12.4583 11.8158H10.8383V8.92667C10.8383 8.25417 10.6033 7.7975 10.0175 7.7975C9.57 7.7975 9.30417 8.10667 9.18667 8.40417C9.14333 8.51 9.1325 8.66 9.1325 8.80917V11.815H7.51167V8.265C7.51167 7.61417 7.49083 7.07 7.46917 6.60167H8.87667L8.95083 7.32583H8.98333C9.19667 6.98583 9.71917 6.48417 10.5933 6.48417C11.6592 6.48417 12.4583 7.19833 12.4583 8.73333V11.8158Z" fill="white"/>
</svg>
