<svg width="44" height="44" viewBox="0 0 44 44" fill="none" xmlns="http://www.w3.org/2000/svg">
<path d="M28.8759 19.9362C28.8759 21.9082 28.2356 23.7298 27.157 25.2077L32.5971 30.651C33.1343 31.1881 33.1343 32.0602 32.5971 32.5972C32.06 33.1343 31.1877 33.1343 30.6506 32.5972L25.2105 27.1539C23.7323 28.2365 21.9103 28.8724 19.9379 28.8724C15.0006 28.8724 11 24.8726 11 19.9362C11 14.9998 15.0006 11 19.9379 11C24.8753 11 28.8759 14.9998 28.8759 19.9362ZM19.9379 26.1228C23.3541 26.1228 26.1257 23.3517 26.1257 19.9362C26.1257 16.5207 23.3541 13.7496 19.9379 13.7496C16.5218 13.7496 13.7501 16.5207 13.7501 19.9362C13.7501 23.3517 16.5218 26.1228 19.9379 26.1228Z" fill="white"/>
</svg>
