<svg width="48" height="48" viewBox="0 0 48 48" fill="none" xmlns="http://www.w3.org/2000/svg">
<path d="M23.5999 21.8C19.0599 20.62 17.5999 19.4 17.5999 17.5C17.5999 15.32 19.6199 13.8 22.9999 13.8C26.5599 13.8 27.8799 15.5 27.9999 18H32.4199C32.2799 14.56 30.1799 11.4 25.9999 10.38V6H19.9999V10.32C16.1199 11.16 12.9999 13.68 12.9999 17.54C12.9999 22.16 16.8199 24.46 22.3999 25.8C27.3999 27 28.3999 28.76 28.3999 30.62C28.3999 32 27.4199 34.2 22.9999 34.2C18.8799 34.2 17.2599 32.36 17.0399 30H12.6399C12.8799 34.38 16.1599 36.84 19.9999 37.66V42H25.9999V37.7C29.8999 36.96 32.9999 34.7 32.9999 30.6C32.9999 24.92 28.1399 22.98 23.5999 21.8Z" fill="white"/>
</svg>
