<svg width="50" height="50" viewBox="0 0 50 50" fill="none" xmlns="http://www.w3.org/2000/svg">
<path d="M14.3934 35.7023C13.0005 34.2968 11.8956 32.6283 11.1418 30.792C10.388 28.9557 10 26.9876 10 25C10 23.0124 10.388 21.0443 11.1418 19.208C11.8956 17.3717 13.0005 15.7032 14.3934 14.2977M35.6066 14.2977C36.9995 15.7032 38.1044 17.3717 38.8582 19.208C39.612 21.0443 40 23.0124 40 25C40 26.9876 39.612 28.9557 38.8582 30.792C38.1044 32.6283 36.9995 34.2968 35.6066 35.7023M19.1067 30.9448C17.5445 29.368 16.6669 27.2296 16.6669 25C16.6669 22.7704 17.5445 20.632 19.1067 19.0552M30.8933 19.0552C32.4555 20.632 33.3331 22.7704 33.3331 25C33.3331 27.2296 32.4555 29.368 30.8933 30.9448M26.6667 25C26.6667 25.446 26.4911 25.8738 26.1785 26.1891C25.8659 26.5045 25.442 26.6817 25 26.6817C24.558 26.6817 24.1341 26.5045 23.8215 26.1891C23.5089 25.8738 23.3333 25.446 23.3333 25C23.3333 24.554 23.5089 24.1262 23.8215 23.8109C24.1341 23.4955 24.558 23.3183 25 23.3183C25.442 23.3183 25.8659 23.4955 26.1785 23.8109C26.4911 24.1262 26.6667 24.554 26.6667 25V25Z" stroke="#FAFAFA" stroke-width="2" stroke-linecap="round" stroke-linejoin="round"/>
<rect x="0.5" y="0.5" width="49" height="49" rx="24.5" stroke="#FAFAFA"/>
</svg>
