<svg width="24" height="18" viewBox="0 0 24 18" fill="none" xmlns="http://www.w3.org/2000/svg">
<path d="M22.0285 7.87549C22.542 8.54716 22.542 9.45391 22.0285 10.1245C20.4111 12.2359 16.5306 16.5833 12.0001 16.5833C7.46955 16.5833 3.58905 12.2359 1.97164 10.1245C1.7218 9.80288 1.58618 9.40723 1.58618 8.99999C1.58618 8.59275 1.7218 8.1971 1.97164 7.87549C3.58905 5.76407 7.46955 1.41666 12.0001 1.41666C16.5306 1.41666 20.4111 5.76407 22.0285 7.87549V7.87549Z" stroke="#949494" stroke-width="2" stroke-linecap="round" stroke-linejoin="round"/>
<path d="M12 12.25C13.7949 12.25 15.25 10.7949 15.25 9C15.25 7.20507 13.7949 5.75 12 5.75C10.2051 5.75 8.75 7.20507 8.75 9C8.75 10.7949 10.2051 12.25 12 12.25Z" stroke="#949494" stroke-width="2" stroke-linecap="round" stroke-linejoin="round"/>
</svg>
