<svg width="32" height="31" viewBox="0 0 32 31" fill="none" xmlns="http://www.w3.org/2000/svg">
<path d="M14.7038 2.38619C15.1518 1.2046 16.8471 1.2046 17.2965 2.38619L20.1944 10.4137C20.2955 10.6752 20.4735 10.8999 20.7049 11.0581C20.9364 11.2163 21.2104 11.3006 21.4907 11.2999H28.6122C29.9282 11.2999 30.5021 12.9378 29.4676 13.74L24.3998 18.2997C24.1728 18.4743 24.0069 18.7162 23.9259 18.9909C23.8449 19.2655 23.853 19.5588 23.949 19.8285L25.7997 27.6726C26.2505 28.9326 24.7918 30.0148 23.6886 29.2392L16.8051 24.8712C16.5694 24.7056 16.2883 24.6167 16.0002 24.6167C15.712 24.6167 15.4309 24.7056 15.1952 24.8712L8.31171 29.2392C7.20996 30.0148 5.74982 28.9312 6.2006 27.6726L8.05132 19.8285C8.14733 19.5588 8.15542 19.2655 8.07443 18.9909C7.99345 18.7162 7.82755 18.4743 7.60054 18.2997L2.53277 13.74C1.49681 12.9378 2.07359 11.2999 3.38673 11.2999H10.5082C10.7886 11.3008 11.0627 11.2166 11.2942 11.0583C11.5256 10.9001 11.7036 10.6753 11.8046 10.4137L14.7024 2.38619H14.7038Z" stroke="#FAFAFA" stroke-width="2" stroke-linecap="round" stroke-linejoin="round"/>
</svg>
