<svg width="18" height="18" viewBox="0 0 18 18" fill="none" xmlns="http://www.w3.org/2000/svg">
<path d="M11.2642 5.41504L9.17513 0.611371C9.02769 0.272365 8.57341 0.272365 8.42598 0.611372L6.33687 5.41504C6.27678 5.55321 6.15333 5.64834 6.01087 5.66626L1.05779 6.28911C0.708243 6.33307 0.567863 6.7913 0.826294 7.04478L4.48823 10.6365C4.59355 10.7398 4.64071 10.8937 4.61275 11.0429L3.64069 16.2316C3.57209 16.5977 3.93961 16.8809 4.24676 16.6986L8.59907 14.1147C8.72425 14.0404 8.87685 14.0404 9.00204 14.1147L13.3543 16.6986C13.6615 16.8809 14.029 16.5977 13.9604 16.2316L12.9884 11.0429C12.9604 10.8937 13.0076 10.7398 13.1129 10.6365L16.7748 7.04478C17.0332 6.7913 16.8929 6.33307 16.5433 6.28911L11.5902 5.66626C11.4478 5.64834 11.3243 5.55321 11.2642 5.41504Z" fill="white" stroke="white" stroke-width="0.5" stroke-linecap="round" stroke-linejoin="round"/>
</svg>
