<svg width="58" height="10" viewBox="0 0 58 10" fill="none" xmlns="http://www.w3.org/2000/svg">
<g clip-path="url(#clip0_2685_1807)">
<path d="M6.2441 3.53097L5.18899 1.24351C5.11453 1.08208 4.8851 1.08208 4.81064 1.24351L3.75553 3.53097C3.72518 3.59677 3.66283 3.64207 3.59088 3.6506L1.08933 3.9472C0.91279 3.96813 0.841891 4.18633 0.972412 4.30704L2.82187 6.01737C2.87507 6.06656 2.89888 6.13986 2.88476 6.21092L2.39382 8.68169C2.35918 8.85606 2.54479 8.99092 2.69992 8.90409L4.89806 7.67367C4.96128 7.63828 5.03835 7.63828 5.10157 7.67367L7.29971 8.90409C7.45484 8.99092 7.64045 8.85606 7.60581 8.68169L7.11487 6.21092C7.10075 6.13986 7.12456 6.06656 7.17776 6.01737L9.02722 4.30704C9.15774 4.18633 9.08684 3.96813 8.9103 3.9472L6.40875 3.6506C6.3368 3.64207 6.27445 3.59677 6.2441 3.53097Z" fill="white" stroke="white" stroke-width="0.5" stroke-linecap="round" stroke-linejoin="round"/>
</g>
<g clip-path="url(#clip1_2685_1807)">
<path d="M18.2441 3.53097L17.189 1.24351C17.1145 1.08208 16.8851 1.08208 16.8106 1.24351L15.7555 3.53097C15.7252 3.59677 15.6628 3.64207 15.5909 3.6506L13.0893 3.9472C12.9128 3.96813 12.8419 4.18633 12.9724 4.30704L14.8219 6.01737C14.8751 6.06656 14.8989 6.13986 14.8848 6.21092L14.3938 8.68169C14.3592 8.85606 14.5448 8.99092 14.6999 8.90409L16.8981 7.67367C16.9613 7.63828 17.0384 7.63828 17.1016 7.67367L19.2997 8.90409C19.4548 8.99092 19.6405 8.85606 19.6058 8.68169L19.1149 6.21092C19.1007 6.13986 19.1246 6.06656 19.1778 6.01737L21.0272 4.30704C21.1577 4.18633 21.0868 3.96813 20.9103 3.9472L18.4087 3.6506C18.3368 3.64207 18.2744 3.59677 18.2441 3.53097Z" fill="white" stroke="white" stroke-width="0.5" stroke-linecap="round" stroke-linejoin="round"/>
</g>
<g clip-path="url(#clip2_2685_1807)">
<path d="M30.2441 3.53097L29.189 1.24351C29.1145 1.08208 28.8851 1.08208 28.8106 1.24351L27.7555 3.53097C27.7252 3.59677 27.6628 3.64207 27.5909 3.6506L25.0893 3.9472C24.9128 3.96813 24.8419 4.18633 24.9724 4.30704L26.8219 6.01737C26.8751 6.06656 26.8989 6.13986 26.8848 6.21092L26.3938 8.68169C26.3592 8.85606 26.5448 8.99092 26.6999 8.90409L28.8981 7.67367C28.9613 7.63828 29.0384 7.63828 29.1016 7.67367L31.2997 8.90409C31.4548 8.99092 31.6405 8.85606 31.6058 8.68169L31.1149 6.21092C31.1007 6.13986 31.1246 6.06656 31.1778 6.01737L33.0272 4.30704C33.1577 4.18633 33.0868 3.96813 32.9103 3.9472L30.4087 3.6506C30.3368 3.64207 30.2744 3.59677 30.2441 3.53097Z" fill="white" stroke="white" stroke-width="0.5" stroke-linecap="round" stroke-linejoin="round"/>
</g>
<g clip-path="url(#clip3_2685_1807)">
<path d="M42.2441 3.53097L41.189 1.24351C41.1145 1.08208 40.8851 1.08208 40.8106 1.24351L39.7555 3.53097C39.7252 3.59677 39.6628 3.64207 39.5909 3.6506L37.0893 3.9472C36.9128 3.96813 36.8419 4.18633 36.9724 4.30704L38.8219 6.01737C38.8751 6.06656 38.8989 6.13986 38.8848 6.21092L38.3938 8.68169C38.3592 8.85606 38.5448 8.99092 38.6999 8.90409L40.8981 7.67367C40.9613 7.63828 41.0384 7.63828 41.1016 7.67367L43.2997 8.90409C43.4548 8.99092 43.6405 8.85606 43.6058 8.68169L43.1149 6.21092C43.1007 6.13986 43.1246 6.06656 43.1778 6.01737L45.0272 4.30704C45.1577 4.18633 45.0868 3.96813 44.9103 3.9472L42.4087 3.6506C42.3368 3.64207 42.2744 3.59677 42.2441 3.53097Z" fill="white" stroke="white" stroke-width="0.5" stroke-linecap="round" stroke-linejoin="round"/>
</g>
<g clip-path="url(#clip4_2685_1807)">
<path d="M54.2441 3.53097L53.189 1.24351C53.1145 1.08208 52.8851 1.08208 52.8106 1.24351L51.7555 3.53097C51.7252 3.59677 51.6628 3.64207 51.5909 3.6506L49.0893 3.9472C48.9128 3.96813 48.8419 4.18633 48.9724 4.30704L50.8219 6.01737C50.8751 6.06656 50.8989 6.13986 50.8848 6.21092L50.3938 8.68169C50.3592 8.85606 50.5448 8.99092 50.6999 8.90409L52.8981 7.67367C52.9613 7.63828 53.0384 7.63828 53.1016 7.67367L55.2997 8.90409C55.4548 8.99092 55.6405 8.85606 55.6058 8.68169L55.1149 6.21092C55.1007 6.13986 55.1246 6.06656 55.1778 6.01737L57.0272 4.30704C57.1577 4.18633 57.0868 3.96813 56.9103 3.9472L54.4087 3.6506C54.3368 3.64207 54.2744 3.59677 54.2441 3.53097Z" stroke="white" stroke-width="0.5" stroke-linecap="round" stroke-linejoin="round"/>
</g>
<defs>
<clipPath id="clip0_2685_1807">
<rect width="10" height="10" fill="white"/>
</clipPath>
<clipPath id="clip1_2685_1807">
<rect width="10" height="10" fill="white" transform="translate(12)"/>
</clipPath>
<clipPath id="clip2_2685_1807">
<rect width="10" height="10" fill="white" transform="translate(24)"/>
</clipPath>
<clipPath id="clip3_2685_1807">
<rect width="10" height="10" fill="white" transform="translate(36)"/>
</clipPath>
<clipPath id="clip4_2685_1807">
<rect width="10" height="10" fill="white" transform="translate(48)"/>
</clipPath>
</defs>
</svg>
