<svg width="24" height="24" viewBox="0 0 24 24" fill="none" xmlns="http://www.w3.org/2000/svg">
<path d="M17.8759 8.93619C17.8759 10.9082 17.2356 12.7298 16.157 14.2077L21.5971 19.651C22.1343 20.1881 22.1343 21.0602 21.5971 21.5972C21.06 22.1343 20.1877 22.1343 19.6506 21.5972L14.2105 16.1539C12.7323 17.2365 10.9103 17.8724 8.93794 17.8724C4.00059 17.8724 0 13.8726 0 8.93619C0 3.9998 4.00059 0 8.93794 0C13.8753 0 17.8759 3.9998 17.8759 8.93619ZM8.93794 15.1228C12.3541 15.1228 15.1257 12.3517 15.1257 8.93619C15.1257 5.52068 12.3541 2.7496 8.93794 2.7496C5.52175 2.7496 2.75013 5.52068 2.75013 8.93619C2.75013 12.3517 5.52175 15.1228 8.93794 15.1228Z" fill="white"/>
</svg>
